<svg width="95" height="98" viewBox="0 0 95 98" fill="none" xmlns="http://www.w3.org/2000/svg">
<path d="M51.4584 28.5833C51.4584 37.604 44.3694 44.9167 35.6251 44.9167C26.8806 44.9167 19.7917 37.604 19.7917 28.5833C19.7917 19.5627 26.8806 12.25 35.6251 12.25C44.3694 12.25 51.4584 19.5627 51.4584 28.5833Z" stroke="white" stroke-width="1.5"/>
<path d="M59.375 44.9167C68.1194 44.9167 75.2083 37.604 75.2083 28.5833C75.2083 19.5627 68.1194 12.25 59.375 12.25" stroke="white" stroke-width="1.5" stroke-linecap="round" stroke-linejoin="round"/>
<path d="M43.5417 57.1665H27.7084C16.7778 57.1665 7.91675 66.3075 7.91675 77.5832C7.91675 82.0936 11.4612 85.7498 15.8334 85.7498H55.4167C59.7891 85.7498 63.3334 82.0936 63.3334 77.5832C63.3334 66.3075 54.4723 57.1665 43.5417 57.1665Z" stroke="white" stroke-width="1.5" stroke-linejoin="round"/>
<path d="M67.2917 57.1665C78.2223 57.1665 87.0834 66.3075 87.0834 77.5832C87.0834 82.0936 83.5391 85.7498 79.1667 85.7498H73.2292" stroke="white" stroke-width="1.5" stroke-linecap="round" stroke-linejoin="round"/>
</svg>
